<svg width="196" height="42" viewBox="0 0 196 42" fill="none" xmlns="http://www.w3.org/2000/svg">
<rect y="9.42929" width="23.1414" height="23.1414" fill="#203ABD"/>
<path d="M47.8941 18.0871C48.4495 17.2355 49.1437 16.569 49.9768 16.0877C50.8099 15.5878 51.7355 15.3379 52.7538 15.3379V20.3642H51.4486C50.2637 20.3642 49.3751 20.6234 48.7827 21.1418C48.1903 21.6416 47.8941 22.5302 47.8941 23.8076V31H43.1454V15.5045H47.8941V18.0871ZM69.3249 23.0023C69.3249 23.4466 69.2971 23.9095 69.2416 24.3908H58.4947C58.5688 25.3535 58.8742 26.094 59.4111 26.6124C59.9665 27.1122 60.6422 27.3622 61.4383 27.3622C62.6231 27.3622 63.447 26.8623 63.9098 25.8626H68.9639C68.7047 26.8808 68.2326 27.7972 67.5476 28.6118C66.8812 29.4264 66.0388 30.0651 65.0206 30.5279C64.0024 30.9907 62.8638 31.2222 61.6049 31.2222C60.0868 31.2222 58.7354 30.8982 57.5505 30.2502C56.3657 29.6023 55.44 28.6766 54.7736 27.4732C54.1071 26.2699 53.7739 24.8629 53.7739 23.2523C53.7739 21.6416 54.0978 20.2346 54.7458 19.0313C55.4123 17.8279 56.3379 16.9022 57.5228 16.2543C58.7076 15.6063 60.0683 15.2823 61.6049 15.2823C63.1045 15.2823 64.4374 15.5971 65.6038 16.2265C66.7701 16.856 67.6772 17.7539 68.3252 18.9202C68.9917 20.0865 69.3249 21.4472 69.3249 23.0023ZM64.4652 21.7527C64.4652 20.9381 64.1875 20.2902 63.6321 19.8088C63.0767 19.3275 62.3825 19.0868 61.5494 19.0868C60.7533 19.0868 60.0776 19.3182 59.5222 19.781C58.9853 20.2439 58.6521 20.9011 58.5225 21.7527H64.4652ZM70.5804 23.2523C70.5804 21.6416 70.9044 20.2346 71.5523 19.0313C72.2188 17.8279 73.1352 16.9022 74.3015 16.2543C75.4864 15.6063 76.8378 15.2823 78.3559 15.2823C80.2998 15.2823 81.9197 15.7915 83.2156 16.8097C84.53 17.8279 85.3909 19.2627 85.7982 21.114H80.7441C80.3183 19.9291 79.4945 19.3367 78.2726 19.3367C77.4025 19.3367 76.7082 19.6792 76.1899 20.3642C75.6715 21.0307 75.4123 21.9934 75.4123 23.2523C75.4123 24.5111 75.6715 25.4831 76.1899 26.1681C76.7082 26.8345 77.4025 27.1678 78.2726 27.1678C79.4945 27.1678 80.3183 26.5754 80.7441 25.3905H85.7982C85.3909 27.2048 84.53 28.6303 83.2156 29.6671C81.9012 30.7038 80.2813 31.2222 78.3559 31.2222C76.8378 31.2222 75.4864 30.8982 74.3015 30.2502C73.1352 29.6023 72.2188 28.6766 71.5523 27.4732C70.9044 26.2699 70.5804 24.8629 70.5804 23.2523ZM95.0863 31.2222C93.5682 31.2222 92.1982 30.8982 90.9764 30.2502C89.773 29.6023 88.8196 28.6766 88.1161 27.4732C87.4311 26.2699 87.0886 24.8629 87.0886 23.2523C87.0886 21.6601 87.4404 20.2624 88.1439 19.059C88.8473 17.8372 89.81 16.9022 91.0319 16.2543C92.2538 15.6063 93.6237 15.2823 95.1418 15.2823C96.6599 15.2823 98.0299 15.6063 99.2517 16.2543C100.474 16.9022 101.436 17.8372 102.14 19.059C102.843 20.2624 103.195 21.6601 103.195 23.2523C103.195 24.8444 102.834 26.2514 102.112 27.4732C101.409 28.6766 100.437 29.6023 99.1962 30.2502C97.9743 30.8982 96.6044 31.2222 95.0863 31.2222ZM95.0863 27.1122C95.9934 27.1122 96.7617 26.779 97.3912 26.1125C98.0391 25.4461 98.3631 24.4926 98.3631 23.2523C98.3631 22.0119 98.0484 21.0584 97.4189 20.392C96.808 19.7255 96.049 19.3923 95.1418 19.3923C94.2162 19.3923 93.4479 19.7255 92.8369 20.392C92.226 21.0399 91.9205 21.9934 91.9205 23.2523C91.9205 24.4926 92.2167 25.4461 92.8092 26.1125C93.4201 26.779 94.1791 27.1122 95.0863 27.1122ZM125.181 15.3379C127.106 15.3379 128.634 15.9211 129.763 17.0874C130.911 18.2537 131.485 19.8736 131.485 21.9471V31H126.764V22.5858C126.764 21.5861 126.495 20.8178 125.958 20.2809C125.44 19.7255 124.718 19.4478 123.792 19.4478C122.867 19.4478 122.135 19.7255 121.599 20.2809C121.08 20.8178 120.821 21.5861 120.821 22.5858V31H116.1V22.5858C116.1 21.5861 115.832 20.8178 115.295 20.2809C114.776 19.7255 114.054 19.4478 113.129 19.4478C112.203 19.4478 111.472 19.7255 110.935 20.2809C110.417 20.8178 110.157 21.5861 110.157 22.5858V31H105.409V15.5045H110.157V17.4484C110.639 16.8004 111.268 16.2913 112.046 15.9211C112.823 15.5323 113.703 15.3379 114.684 15.3379C115.85 15.3379 116.887 15.5878 117.794 16.0877C118.72 16.5875 119.442 17.3003 119.96 18.2259C120.497 17.3743 121.228 16.6801 122.154 16.1432C123.08 15.6063 124.089 15.3379 125.181 15.3379ZM133.556 23.2245C133.556 21.6324 133.852 20.2346 134.445 19.0313C135.056 17.8279 135.879 16.9022 136.916 16.2543C137.953 15.6063 139.11 15.2823 140.387 15.2823C141.48 15.2823 142.433 15.5045 143.248 15.9488C144.081 16.3931 144.719 16.9763 145.164 17.6983V15.5045H149.912V31H145.164V28.8062C144.701 29.5282 144.053 30.1114 143.22 30.5557C142.405 31 141.452 31.2222 140.36 31.2222C139.101 31.2222 137.953 30.8982 136.916 30.2502C135.879 29.5837 135.056 28.6488 134.445 27.4455C133.852 26.2236 133.556 24.8166 133.556 23.2245ZM145.164 23.2523C145.164 22.0674 144.83 21.1325 144.164 20.4475C143.516 19.7625 142.72 19.42 141.776 19.42C140.832 19.42 140.026 19.7625 139.36 20.4475C138.712 21.114 138.388 22.0396 138.388 23.2245C138.388 24.4093 138.712 25.3535 139.36 26.057C140.026 26.742 140.832 27.0845 141.776 27.0845C142.72 27.0845 143.516 26.742 144.164 26.057C144.83 25.372 145.164 24.4371 145.164 23.2523ZM157.791 17.6983C158.235 16.9763 158.874 16.3931 159.707 15.9488C160.54 15.5045 161.494 15.2823 162.567 15.2823C163.845 15.2823 165.002 15.6063 166.039 16.2543C167.075 16.9022 167.89 17.8279 168.482 19.0313C169.093 20.2346 169.399 21.6324 169.399 23.2245C169.399 24.8166 169.093 26.2236 168.482 27.4455C167.89 28.6488 167.075 29.5837 166.039 30.2502C165.002 30.8982 163.845 31.2222 162.567 31.2222C161.475 31.2222 160.522 31.0093 159.707 30.5835C158.892 30.1391 158.254 29.556 157.791 28.834V31H153.042V10.4504H157.791V17.6983ZM164.567 23.2245C164.567 22.0396 164.233 21.114 163.567 20.4475C162.919 19.7625 162.114 19.42 161.151 19.42C160.207 19.42 159.402 19.7625 158.735 20.4475C158.087 21.1325 157.763 22.0674 157.763 23.2523C157.763 24.4371 158.087 25.372 158.735 26.057C159.402 26.742 160.207 27.0845 161.151 27.0845C162.095 27.0845 162.901 26.742 163.567 26.057C164.233 25.3535 164.567 24.4093 164.567 23.2245ZM176.333 10.4504V31H171.584V10.4504H176.333ZM194.076 23.0023C194.076 23.4466 194.048 23.9095 193.992 24.3908H183.246C183.32 25.3535 183.625 26.094 184.162 26.6124C184.717 27.1122 185.393 27.3622 186.189 27.3622C187.374 27.3622 188.198 26.8623 188.661 25.8626H193.715C193.456 26.8808 192.983 27.7972 192.298 28.6118C191.632 29.4264 190.79 30.0651 189.771 30.5279C188.753 30.9907 187.615 31.2222 186.356 31.2222C184.838 31.2222 183.486 30.8982 182.301 30.2502C181.117 29.6023 180.191 28.6766 179.524 27.4732C178.858 26.2699 178.525 24.8629 178.525 23.2523C178.525 21.6416 178.849 20.2346 179.497 19.0313C180.163 17.8279 181.089 16.9022 182.274 16.2543C183.458 15.6063 184.819 15.2823 186.356 15.2823C187.855 15.2823 189.188 15.5971 190.355 16.2265C191.521 16.856 192.428 17.7539 193.076 18.9202C193.742 20.0865 194.076 21.4472 194.076 23.0023ZM189.216 21.7527C189.216 20.9381 188.938 20.2902 188.383 19.8088C187.828 19.3275 187.133 19.0868 186.3 19.0868C185.504 19.0868 184.828 19.3182 184.273 19.781C183.736 20.2439 183.403 20.9011 183.273 21.7527H189.216Z" fill="black"/>
</svg>
