<svg width="253" height="43" viewBox="0 0 253 43" fill="none" xmlns="http://www.w3.org/2000/svg">
<rect y="9.92932" width="23.1414" height="23.1414" fill="#203ABD"/>
<path d="M53.2252 21.5L34.1335 32.5226V10.4774L53.2252 21.5Z" fill="#FA8026"/>
<circle cx="69.4244" cy="21.5" r="11.5707" fill="#FFE61A"/>
<path d="M105.748 18.5871C106.303 17.7355 106.997 17.069 107.83 16.5877C108.663 16.0878 109.589 15.8379 110.607 15.8379V20.8642H109.302C108.117 20.8642 107.229 21.1234 106.636 21.6418C106.044 22.1416 105.748 23.0302 105.748 24.3076V31.5H100.999V16.0045H105.748V18.5871ZM127.178 23.5023C127.178 23.9466 127.151 24.4095 127.095 24.8908H116.348C116.422 25.8535 116.728 26.594 117.265 27.1124C117.82 27.6122 118.496 27.8622 119.292 27.8622C120.477 27.8622 121.301 27.3623 121.763 26.3626H126.817C126.558 27.3808 126.086 28.2972 125.401 29.1118C124.735 29.9264 123.892 30.5651 122.874 31.0279C121.856 31.4907 120.717 31.7222 119.458 31.7222C117.94 31.7222 116.589 31.3982 115.404 30.7502C114.219 30.1023 113.294 29.1766 112.627 27.9732C111.961 26.7699 111.627 25.3629 111.627 23.7523C111.627 22.1416 111.951 20.7346 112.599 19.5313C113.266 18.3279 114.192 17.4022 115.376 16.7543C116.561 16.1063 117.922 15.7823 119.458 15.7823C120.958 15.7823 122.291 16.0971 123.457 16.7265C124.624 17.356 125.531 18.2539 126.179 19.4202C126.845 20.5865 127.178 21.9472 127.178 23.5023ZM122.319 22.2527C122.319 21.4381 122.041 20.7902 121.486 20.3088C120.93 19.8275 120.236 19.5868 119.403 19.5868C118.607 19.5868 117.931 19.8182 117.376 20.281C116.839 20.7439 116.506 21.4011 116.376 22.2527H122.319ZM128.434 23.7523C128.434 22.1416 128.758 20.7346 129.406 19.5313C130.072 18.3279 130.989 17.4022 132.155 16.7543C133.34 16.1063 134.691 15.7823 136.209 15.7823C138.153 15.7823 139.773 16.2915 141.069 17.3097C142.384 18.3279 143.244 19.7627 143.652 21.614H138.598C138.172 20.4291 137.348 19.8367 136.126 19.8367C135.256 19.8367 134.562 20.1792 134.043 20.8642C133.525 21.5307 133.266 22.4934 133.266 23.7523C133.266 25.0111 133.525 25.9831 134.043 26.6681C134.562 27.3345 135.256 27.6678 136.126 27.6678C137.348 27.6678 138.172 27.0754 138.598 25.8905H143.652C143.244 27.7048 142.384 29.1303 141.069 30.1671C139.755 31.2038 138.135 31.7222 136.209 31.7222C134.691 31.7222 133.34 31.3982 132.155 30.7502C130.989 30.1023 130.072 29.1766 129.406 27.9732C128.758 26.7699 128.434 25.3629 128.434 23.7523ZM152.94 31.7222C151.422 31.7222 150.052 31.3982 148.83 30.7502C147.627 30.1023 146.673 29.1766 145.97 27.9732C145.285 26.7699 144.942 25.3629 144.942 23.7523C144.942 22.1601 145.294 20.7624 145.997 19.559C146.701 18.3372 147.664 17.4022 148.885 16.7543C150.107 16.1063 151.477 15.7823 152.995 15.7823C154.513 15.7823 155.883 16.1063 157.105 16.7543C158.327 17.4022 159.29 18.3372 159.993 19.559C160.697 20.7624 161.049 22.1601 161.049 23.7523C161.049 25.3444 160.688 26.7514 159.966 27.9732C159.262 29.1766 158.29 30.1023 157.05 30.7502C155.828 31.3982 154.458 31.7222 152.94 31.7222ZM152.94 27.6122C153.847 27.6122 154.615 27.279 155.245 26.6125C155.893 25.9461 156.217 24.9926 156.217 23.7523C156.217 22.5119 155.902 21.5584 155.273 20.892C154.662 20.2255 153.903 19.8923 152.995 19.8923C152.07 19.8923 151.301 20.2255 150.691 20.892C150.08 21.5399 149.774 22.4934 149.774 23.7523C149.774 24.9926 150.07 25.9461 150.663 26.6125C151.274 27.279 152.033 27.6122 152.94 27.6122ZM183.034 15.8379C184.96 15.8379 186.487 16.4211 187.616 17.5874C188.764 18.7537 189.338 20.3736 189.338 22.4471V31.5H184.617V23.0858C184.617 22.0861 184.349 21.3178 183.812 20.7809C183.294 20.2255 182.572 19.9478 181.646 19.9478C180.72 19.9478 179.989 20.2255 179.452 20.7809C178.934 21.3178 178.675 22.0861 178.675 23.0858V31.5H173.954V23.0858C173.954 22.0861 173.685 21.3178 173.148 20.7809C172.63 20.2255 171.908 19.9478 170.982 19.9478C170.057 19.9478 169.325 20.2255 168.789 20.7809C168.27 21.3178 168.011 22.0861 168.011 23.0858V31.5H163.262V16.0045H168.011V17.9484C168.492 17.3004 169.122 16.7913 169.899 16.4211C170.677 16.0323 171.556 15.8379 172.537 15.8379C173.704 15.8379 174.741 16.0878 175.648 16.5877C176.573 17.0875 177.295 17.8003 177.814 18.7259C178.351 17.8743 179.082 17.1801 180.007 16.6432C180.933 16.1063 181.942 15.8379 183.034 15.8379ZM191.41 23.7245C191.41 22.1324 191.706 20.7346 192.298 19.5313C192.909 18.3279 193.733 17.4022 194.77 16.7543C195.806 16.1063 196.964 15.7823 198.241 15.7823C199.333 15.7823 200.287 16.0045 201.101 16.4488C201.934 16.8931 202.573 17.4763 203.017 18.1983V16.0045H207.766V31.5H203.017V29.3062C202.554 30.0282 201.907 30.6114 201.073 31.0557C200.259 31.5 199.305 31.7222 198.213 31.7222C196.954 31.7222 195.806 31.3982 194.77 30.7502C193.733 30.0837 192.909 29.1488 192.298 27.9455C191.706 26.7236 191.41 25.3166 191.41 23.7245ZM203.017 23.7523C203.017 22.5674 202.684 21.6325 202.018 20.9475C201.37 20.2625 200.574 19.92 199.629 19.92C198.685 19.92 197.88 20.2625 197.213 20.9475C196.565 21.614 196.241 22.5396 196.241 23.7245C196.241 24.9093 196.565 25.8535 197.213 26.557C197.88 27.242 198.685 27.5845 199.629 27.5845C200.574 27.5845 201.37 27.242 202.018 26.557C202.684 25.872 203.017 24.9371 203.017 23.7523ZM215.644 18.1983C216.089 17.4763 216.728 16.8931 217.561 16.4488C218.394 16.0045 219.347 15.7823 220.421 15.7823C221.698 15.7823 222.855 16.1063 223.892 16.7543C224.929 17.4022 225.743 18.3279 226.336 19.5313C226.947 20.7346 227.252 22.1324 227.252 23.7245C227.252 25.3166 226.947 26.7236 226.336 27.9455C225.743 29.1488 224.929 30.0837 223.892 30.7502C222.855 31.3982 221.698 31.7222 220.421 31.7222C219.329 31.7222 218.375 31.5093 217.561 31.0835C216.746 30.6391 216.107 30.056 215.644 29.334V31.5H210.896V10.9504H215.644V18.1983ZM222.42 23.7245C222.42 22.5396 222.087 21.614 221.421 20.9475C220.773 20.2625 219.967 19.92 219.005 19.92C218.06 19.92 217.255 20.2625 216.589 20.9475C215.941 21.6325 215.617 22.5674 215.617 23.7523C215.617 24.9371 215.941 25.872 216.589 26.557C217.255 27.242 218.06 27.5845 219.005 27.5845C219.949 27.5845 220.754 27.242 221.421 26.557C222.087 25.8535 222.42 24.9093 222.42 23.7245ZM234.187 10.9504V31.5H229.438V10.9504H234.187ZM251.929 23.5023C251.929 23.9466 251.902 24.4095 251.846 24.8908H241.099C241.173 25.8535 241.479 26.594 242.016 27.1124C242.571 27.6122 243.247 27.8622 244.043 27.8622C245.228 27.8622 246.051 27.3623 246.514 26.3626H251.568C251.309 27.3808 250.837 28.2972 250.152 29.1118C249.486 29.9264 248.643 30.5651 247.625 31.0279C246.607 31.4907 245.468 31.7222 244.209 31.7222C242.691 31.7222 241.34 31.3982 240.155 30.7502C238.97 30.1023 238.044 29.1766 237.378 27.9732C236.711 26.7699 236.378 25.3629 236.378 23.7523C236.378 22.1416 236.702 20.7346 237.35 19.5313C238.017 18.3279 238.942 17.4022 240.127 16.7543C241.312 16.1063 242.673 15.7823 244.209 15.7823C245.709 15.7823 247.042 16.0971 248.208 16.7265C249.374 17.356 250.282 18.2539 250.93 19.4202C251.596 20.5865 251.929 21.9472 251.929 23.5023ZM247.07 22.2527C247.07 21.4381 246.792 20.7902 246.237 20.3088C245.681 19.8275 244.987 19.5868 244.154 19.5868C243.358 19.5868 242.682 19.8182 242.127 20.281C241.59 20.7439 241.256 21.4011 241.127 22.2527H247.07Z" fill="black"/>
</svg>
