<svg width="236" height="100" viewBox="0 0 236 100" fill="none" xmlns="http://www.w3.org/2000/svg">
<rect width="35.4776" height="35.4776" fill="#203ABD"/>
<path d="M10.3053 62.6811C11.1567 61.3755 12.2211 60.3538 13.4983 59.6158C14.7754 58.8495 16.1946 58.4664 17.7556 58.4664V66.1721H15.7546C13.9382 66.1721 12.5758 66.5695 11.6676 67.3642C10.7594 68.1305 10.3053 69.4928 10.3053 71.4512V82.4776H3.02526V58.7218H10.3053V62.6811ZM43.1604 70.2166C43.1604 70.8977 43.1178 71.6073 43.0327 72.3452H26.5569C26.6704 73.8211 27.1387 74.9564 27.9618 75.7511C28.8133 76.5174 29.8492 76.9005 31.0697 76.9005C32.8861 76.9005 34.1491 76.1342 34.8587 74.6016H42.607C42.2096 76.1626 41.4859 77.5675 40.4357 78.8163C39.414 80.0651 38.1226 81.0443 36.5616 81.7539C35.0006 82.4634 33.2551 82.8182 31.3251 82.8182C28.9978 82.8182 26.9259 82.3215 25.1094 81.3281C23.293 80.3348 21.8739 78.9157 20.8521 77.0708C19.8303 75.226 19.3195 73.069 19.3195 70.5997C19.3195 68.1305 19.8162 65.9734 20.8095 64.1286C21.8313 62.2838 23.2504 60.8647 25.0668 59.8713C26.8833 58.8779 28.9694 58.3812 31.3251 58.3812C33.624 58.3812 35.6675 58.8637 37.4556 59.8287C39.2437 60.7937 40.6344 62.1702 41.6278 63.9583C42.6495 65.7464 43.1604 67.8325 43.1604 70.2166ZM35.7101 68.3008C35.7101 67.0519 35.2844 66.0586 34.4329 65.3206C33.5815 64.5827 32.5171 64.2137 31.2399 64.2137C30.0195 64.2137 28.9836 64.5685 28.1321 65.2781C27.309 65.9876 26.7981 66.9952 26.5995 68.3008H35.7101ZM45.0852 70.5997C45.0852 68.1305 45.5819 65.9734 46.5753 64.1286C47.597 62.2838 49.0019 60.8647 50.79 59.8713C52.6064 58.8779 54.6783 58.3812 57.0057 58.3812C59.9858 58.3812 62.4692 59.1617 64.456 60.7227C66.4711 62.2838 67.7909 64.4834 68.4153 67.3216H60.667C60.0142 65.5051 58.7512 64.5969 56.8779 64.5969C55.544 64.5969 54.4797 65.122 53.685 66.1721C52.8903 67.1939 52.4929 68.6697 52.4929 70.5997C52.4929 72.5297 52.8903 74.0198 53.685 75.0699C54.4797 76.0916 55.544 76.6025 56.8779 76.6025C58.7512 76.6025 60.0142 75.6943 60.667 73.8778H68.4153C67.7909 76.6593 66.4711 78.8447 64.456 80.4341C62.4408 82.0235 59.9574 82.8182 57.0057 82.8182C54.6783 82.8182 52.6064 82.3215 50.79 81.3281C49.0019 80.3348 47.597 78.9157 46.5753 77.0708C45.5819 75.226 45.0852 73.069 45.0852 70.5997ZM82.6546 82.8182C80.3273 82.8182 78.227 82.3215 76.3538 81.3281C74.509 80.3348 73.0473 78.9157 71.9688 77.0708C70.9187 75.226 70.3936 73.069 70.3936 70.5997C70.3936 68.1589 70.9328 66.016 72.0114 64.1712C73.0899 62.2979 74.5658 60.8647 76.439 59.8713C78.3122 58.8779 80.4125 58.3812 82.7398 58.3812C85.0671 58.3812 87.1674 58.8779 89.0406 59.8713C90.9138 60.8647 92.3897 62.2979 93.4682 64.1712C94.5467 66.016 95.086 68.1589 95.086 70.5997C95.086 73.0406 94.5326 75.1976 93.4257 77.0708C92.3471 78.9157 90.8571 80.3348 88.9555 81.3281C87.0823 82.3215 84.982 82.8182 82.6546 82.8182ZM82.6546 76.5174C84.0454 76.5174 85.2232 76.0065 86.1882 74.9847C87.1816 73.963 87.6783 72.5013 87.6783 70.5997C87.6783 68.6981 87.1958 67.2364 86.2308 66.2147C85.2942 65.1929 84.1305 64.682 82.7398 64.682C81.3207 64.682 80.1428 65.1929 79.2062 66.2147C78.2696 67.2081 77.8013 68.6697 77.8013 70.5997C77.8013 72.5013 78.2554 73.963 79.1637 74.9847C80.1003 76.0065 81.2639 76.5174 82.6546 76.5174ZM128.792 58.4664C131.744 58.4664 134.085 59.3604 135.817 61.1485C137.576 62.9365 138.456 65.42 138.456 68.5988V82.4776H131.219V69.578C131.219 68.0453 130.807 66.8675 129.984 66.0444C129.189 65.1929 128.082 64.7672 126.663 64.7672C125.244 64.7672 124.123 65.1929 123.3 66.0444C122.505 66.8675 122.108 68.0453 122.108 69.578V82.4776H114.871V69.578C114.871 68.0453 114.459 66.8675 113.636 66.0444C112.841 65.1929 111.734 64.7672 110.315 64.7672C108.896 64.7672 107.775 65.1929 106.952 66.0444C106.157 66.8675 105.76 68.0453 105.76 69.578V82.4776H98.4799V58.7218H105.76V61.7019C106.498 60.7086 107.463 59.928 108.655 59.3604C109.847 58.7644 111.195 58.4664 112.699 58.4664C114.487 58.4664 116.077 58.8495 117.468 59.6158C118.887 60.3822 119.994 61.4749 120.788 62.894C121.611 61.5884 122.732 60.5241 124.151 59.701C125.571 58.8779 127.117 58.4664 128.792 58.4664ZM141.632 70.5571C141.632 68.1163 142.086 65.9734 142.994 64.1286C143.931 62.2838 145.194 60.8647 146.783 59.8713C148.372 58.8779 150.146 58.3812 152.105 58.3812C153.779 58.3812 155.241 58.7218 156.49 59.403C157.767 60.0841 158.746 60.9782 159.427 62.0851V58.7218H166.707V82.4776H159.427V79.1143C158.718 80.2212 157.724 81.1153 156.447 81.7964C155.198 82.4776 153.737 82.8182 152.062 82.8182C150.132 82.8182 148.372 82.3215 146.783 81.3281C145.194 80.3064 143.931 78.8731 142.994 77.0283C142.086 75.155 141.632 72.998 141.632 70.5571ZM159.427 70.5997C159.427 68.7833 158.916 67.35 157.895 66.2998C156.901 65.2497 155.681 64.7246 154.233 64.7246C152.786 64.7246 151.551 65.2497 150.53 66.2998C149.536 67.3216 149.039 68.7407 149.039 70.5571C149.039 72.3736 149.536 73.8211 150.53 74.8996C151.551 75.9497 152.786 76.4748 154.233 76.4748C155.681 76.4748 156.901 75.9497 157.895 74.8996C158.916 73.8495 159.427 72.4162 159.427 70.5997ZM178.786 62.0851C179.467 60.9782 180.446 60.0841 181.723 59.403C183.001 58.7218 184.462 58.3812 186.108 58.3812C188.067 58.3812 189.841 58.8779 191.43 59.8713C193.019 60.8647 194.268 62.2838 195.176 64.1286C196.113 65.9734 196.581 68.1163 196.581 70.5571C196.581 72.998 196.113 75.155 195.176 77.0283C194.268 78.8731 193.019 80.3064 191.43 81.3281C189.841 82.3215 188.067 82.8182 186.108 82.8182C184.434 82.8182 182.972 82.4918 181.723 81.839C180.475 81.1578 179.495 80.2638 178.786 79.1569V82.4776H171.506V50.9735H178.786V62.0851ZM189.174 70.5571C189.174 68.7407 188.663 67.3216 187.641 66.2998C186.648 65.2497 185.413 64.7246 183.937 64.7246C182.49 64.7246 181.255 65.2497 180.233 66.2998C179.24 67.35 178.743 68.7833 178.743 70.5997C178.743 72.4162 179.24 73.8495 180.233 74.8996C181.255 75.9497 182.49 76.4748 183.937 76.4748C185.385 76.4748 186.619 75.9497 187.641 74.8996C188.663 73.8211 189.174 72.3736 189.174 70.5571ZM207.212 50.9735V82.4776H199.932V50.9735H207.212ZM234.413 70.2166C234.413 70.8977 234.371 71.6073 234.286 72.3452H217.81C217.923 73.8211 218.392 74.9564 219.215 75.7511C220.066 76.5174 221.102 76.9005 222.322 76.9005C224.139 76.9005 225.402 76.1342 226.111 74.6016H233.86C233.462 76.1626 232.739 77.5675 231.689 78.8163C230.667 80.0651 229.375 81.0443 227.814 81.7539C226.253 82.4634 224.508 82.8182 222.578 82.8182C220.251 82.8182 218.179 82.3215 216.362 81.3281C214.546 80.3348 213.127 78.9157 212.105 77.0708C211.083 75.226 210.572 73.069 210.572 70.5997C210.572 68.1305 211.069 65.9734 212.062 64.1286C213.084 62.2838 214.503 60.8647 216.32 59.8713C218.136 58.8779 220.222 58.3812 222.578 58.3812C224.877 58.3812 226.92 58.8637 228.708 59.8287C230.497 60.7937 231.887 62.1702 232.881 63.9583C233.902 65.7464 234.413 67.8325 234.413 70.2166ZM226.963 68.3008C226.963 67.0519 226.537 66.0586 225.686 65.3206C224.834 64.5827 223.77 64.2137 222.493 64.2137C221.272 64.2137 220.236 64.5685 219.385 65.2781C218.562 65.9876 218.051 66.9952 217.852 68.3008H226.963Z" fill="#0A0A0A"/>
</svg>
