<svg width="236" height="104" viewBox="0 0 236 104" fill="none" xmlns="http://www.w3.org/2000/svg">
<rect y="1.77393" width="35.4776" height="35.4776" fill="#203ABD"/>
<path d="M81.5986 19.5127L52.3295 36.4112L52.3295 2.6142L81.5986 19.5127Z" fill="#FA8026"/>
<circle cx="106.433" cy="19.5127" r="17.7388" fill="#FFE61A"/>
<path d="M10.3053 66.2289C11.1567 64.9233 12.2211 63.9016 13.4983 63.1636C14.7754 62.3973 16.1946 62.0141 17.7556 62.0141V69.7199H15.7546C13.9382 69.7199 12.5758 70.1172 11.6676 70.9119C10.7594 71.6782 10.3053 73.0406 10.3053 74.9989V86.0254H3.02526V62.2696H10.3053V66.2289ZM43.1604 73.7643C43.1604 74.4455 43.1178 75.1551 43.0327 75.893H26.5569C26.6704 77.3689 27.1387 78.5041 27.9618 79.2988C28.8133 80.0652 29.8492 80.4483 31.0697 80.4483C32.8861 80.4483 34.1491 79.682 34.8587 78.1494H42.607C42.2096 79.7104 41.4859 81.1153 40.4357 82.3641C39.414 83.6129 38.1226 84.5921 36.5616 85.3016C35.0006 86.0112 33.2551 86.366 31.3251 86.366C28.9978 86.366 26.9259 85.8693 25.1094 84.8759C23.293 83.8825 21.8739 82.4634 20.8521 80.6186C19.8303 78.7738 19.3195 76.6167 19.3195 74.1475C19.3195 71.6782 19.8162 69.5212 20.8095 67.6764C21.8313 65.8315 23.2504 64.4124 25.0668 63.4191C26.8833 62.4257 28.9694 61.929 31.3251 61.929C33.624 61.929 35.6675 62.4115 37.4556 63.3765C39.2437 64.3415 40.6344 65.718 41.6278 67.5061C42.6495 69.2941 43.1604 71.3802 43.1604 73.7643ZM35.7101 71.8485C35.7101 70.5997 35.2844 69.6064 34.4329 68.8684C33.5815 68.1305 32.5171 67.7615 31.2399 67.7615C30.0195 67.7615 28.9836 68.1163 28.1321 68.8258C27.309 69.5354 26.7981 70.543 26.5995 71.8485H35.7101ZM45.0852 74.1475C45.0852 71.6782 45.5819 69.5212 46.5753 67.6764C47.597 65.8315 49.0019 64.4124 50.79 63.4191C52.6064 62.4257 54.6783 61.929 57.0057 61.929C59.9858 61.929 62.4692 62.7095 64.456 64.2705C66.4711 65.8315 67.7909 68.0311 68.4153 70.8694H60.667C60.0142 69.0529 58.7512 68.1447 56.8779 68.1447C55.544 68.1447 54.4797 68.6697 53.685 69.7199C52.8903 70.7416 52.4929 72.2175 52.4929 74.1475C52.4929 76.0775 52.8903 77.5675 53.685 78.6177C54.4797 79.6394 55.544 80.1503 56.8779 80.1503C58.7512 80.1503 60.0142 79.2421 60.667 77.4256H68.4153C67.7909 80.2071 66.4711 82.3925 64.456 83.9819C62.4408 85.5713 59.9574 86.366 57.0057 86.366C54.6783 86.366 52.6064 85.8693 50.79 84.8759C49.0019 83.8825 47.597 82.4634 46.5753 80.6186C45.5819 78.7738 45.0852 76.6167 45.0852 74.1475ZM82.6546 86.366C80.3273 86.366 78.227 85.8693 76.3538 84.8759C74.509 83.8825 73.0473 82.4634 71.9688 80.6186C70.9187 78.7738 70.3936 76.6167 70.3936 74.1475C70.3936 71.7066 70.9328 69.5638 72.0114 67.7189C73.0899 65.8457 74.5658 64.4124 76.439 63.4191C78.3122 62.4257 80.4125 61.929 82.7398 61.929C85.0671 61.929 87.1674 62.4257 89.0406 63.4191C90.9138 64.4124 92.3897 65.8457 93.4682 67.7189C94.5467 69.5638 95.086 71.7066 95.086 74.1475C95.086 76.5883 94.5326 78.7454 93.4257 80.6186C92.3471 82.4634 90.8571 83.8825 88.9555 84.8759C87.0823 85.8693 84.982 86.366 82.6546 86.366ZM82.6546 80.0652C84.0454 80.0652 85.2232 79.5543 86.1882 78.5325C87.1816 77.5108 87.6783 76.0491 87.6783 74.1475C87.6783 72.2459 87.1958 70.7842 86.2308 69.7625C85.2942 68.7407 84.1305 68.2298 82.7398 68.2298C81.3207 68.2298 80.1428 68.7407 79.2062 69.7625C78.2696 70.7558 77.8013 72.2175 77.8013 74.1475C77.8013 76.0491 78.2554 77.5108 79.1637 78.5325C80.1003 79.5543 81.2639 80.0652 82.6546 80.0652ZM128.792 62.0141C131.744 62.0141 134.085 62.9082 135.817 64.6962C137.576 66.4843 138.456 68.9678 138.456 72.1465V86.0254H131.219V73.1257C131.219 71.5931 130.807 70.4152 129.984 69.5922C129.189 68.7407 128.082 68.315 126.663 68.315C125.244 68.315 124.123 68.7407 123.3 69.5922C122.505 70.4152 122.108 71.5931 122.108 73.1257V86.0254H114.871V73.1257C114.871 71.5931 114.459 70.4152 113.636 69.5922C112.841 68.7407 111.734 68.315 110.315 68.315C108.896 68.315 107.775 68.7407 106.952 69.5922C106.157 70.4152 105.76 71.5931 105.76 73.1257V86.0254H98.4799V62.2696H105.76V65.2497C106.498 64.2563 107.463 63.4758 108.655 62.9082C109.847 62.3122 111.195 62.0141 112.699 62.0141C114.487 62.0141 116.077 62.3973 117.468 63.1636C118.887 63.9299 119.994 65.0226 120.788 66.4417C121.611 65.1362 122.732 64.0718 124.151 63.2488C125.571 62.4257 127.117 62.0141 128.792 62.0141ZM141.632 74.1049C141.632 71.6641 142.086 69.5212 142.994 67.6764C143.931 65.8315 145.194 64.4124 146.783 63.4191C148.372 62.4257 150.146 61.929 152.105 61.929C153.779 61.929 155.241 62.2696 156.49 62.9507C157.767 63.6319 158.746 64.526 159.427 65.6329V62.2696H166.707V86.0254H159.427V82.6621C158.718 83.769 157.724 84.6631 156.447 85.3442C155.198 86.0254 153.737 86.366 152.062 86.366C150.132 86.366 148.372 85.8693 146.783 84.8759C145.194 83.8542 143.931 82.4209 142.994 80.576C142.086 78.7028 141.632 76.5458 141.632 74.1049ZM159.427 74.1475C159.427 72.331 158.916 70.8977 157.895 69.8476C156.901 68.7975 155.681 68.2724 154.233 68.2724C152.786 68.2724 151.551 68.7975 150.53 69.8476C149.536 70.8694 149.039 72.2885 149.039 74.1049C149.039 75.9214 149.536 77.3689 150.53 78.4474C151.551 79.4975 152.786 80.0226 154.233 80.0226C155.681 80.0226 156.901 79.4975 157.895 78.4474C158.916 77.3972 159.427 75.9639 159.427 74.1475ZM178.786 65.6329C179.467 64.526 180.446 63.6319 181.723 62.9507C183.001 62.2696 184.462 61.929 186.108 61.929C188.067 61.929 189.841 62.4257 191.43 63.4191C193.019 64.4124 194.268 65.8315 195.176 67.6764C196.113 69.5212 196.581 71.6641 196.581 74.1049C196.581 76.5458 196.113 78.7028 195.176 80.576C194.268 82.4209 193.019 83.8542 191.43 84.8759C189.841 85.8693 188.067 86.366 186.108 86.366C184.434 86.366 182.972 86.0396 181.723 85.3868C180.475 84.7056 179.495 83.8116 178.786 82.7047V86.0254H171.506V54.5213H178.786V65.6329ZM189.174 74.1049C189.174 72.2885 188.663 70.8694 187.641 69.8476C186.648 68.7975 185.413 68.2724 183.937 68.2724C182.49 68.2724 181.255 68.7975 180.233 69.8476C179.24 70.8977 178.743 72.331 178.743 74.1475C178.743 75.9639 179.24 77.3972 180.233 78.4474C181.255 79.4975 182.49 80.0226 183.937 80.0226C185.385 80.0226 186.619 79.4975 187.641 78.4474C188.663 77.3689 189.174 75.9214 189.174 74.1049ZM207.212 54.5213V86.0254H199.932V54.5213H207.212ZM234.413 73.7643C234.413 74.4455 234.371 75.1551 234.286 75.893H217.81C217.923 77.3689 218.392 78.5041 219.215 79.2988C220.066 80.0652 221.102 80.4483 222.322 80.4483C224.139 80.4483 225.402 79.682 226.111 78.1494H233.86C233.462 79.7104 232.739 81.1153 231.689 82.3641C230.667 83.6129 229.375 84.5921 227.814 85.3016C226.253 86.0112 224.508 86.366 222.578 86.366C220.251 86.366 218.179 85.8693 216.362 84.8759C214.546 83.8825 213.127 82.4634 212.105 80.6186C211.083 78.7738 210.572 76.6167 210.572 74.1475C210.572 71.6782 211.069 69.5212 212.062 67.6764C213.084 65.8315 214.503 64.4124 216.32 63.4191C218.136 62.4257 220.222 61.929 222.578 61.929C224.877 61.929 226.92 62.4115 228.708 63.3765C230.497 64.3415 231.887 65.718 232.881 67.5061C233.902 69.2941 234.413 71.3802 234.413 73.7643ZM226.963 71.8485C226.963 70.5997 226.537 69.6064 225.686 68.8684C224.834 68.1305 223.77 67.7615 222.493 67.7615C221.272 67.7615 220.236 68.1163 219.385 68.8258C218.562 69.5354 218.051 70.543 217.852 71.8485H226.963Z" fill="#0A0A0A"/>
</svg>
