<svg width="36" height="37" viewBox="0 0 36 37" fill="none" xmlns="http://www.w3.org/2000/svg">
<circle cx="18" cy="18.0254" r="18" fill="#FA8026"/>
<path d="M25.2 18.069C25.2 14.0682 21.9768 10.8253 18 10.8253C14.0232 10.8253 10.8 14.0682 10.8 18.069C10.8 21.6853 13.4323 24.682 16.8749 25.2253V20.1632H15.047V18.0685H16.8749V16.473C16.8749 14.6576 17.9496 13.6544 19.5945 13.6544C20.3817 13.6544 21.2064 13.796 21.2064 13.796V15.5788H20.2977C19.4035 15.5788 19.1251 16.1375 19.1251 16.7106V18.069H21.1219L20.8027 20.1628H19.1251V25.2253C22.5677 24.682 25.2 21.6853 25.2 18.069Z" fill="white"/>
</svg>
