<svg width="36" height="37" viewBox="0 0 36 37" fill="none" xmlns="http://www.w3.org/2000/svg">
<circle cx="18" cy="18.0254" r="18" fill="#FA8026"/>
<path fill-rule="evenodd" clip-rule="evenodd" d="M18 11.5454C16.24 11.5454 16.0197 11.5528 15.3285 11.5843C14.6386 11.6158 14.1673 11.7256 13.7552 11.8858C13.3232 12.0483 12.9313 12.3031 12.6073 12.6332C12.2778 12.9568 12.0228 13.3484 11.86 13.7806C11.7006 14.1927 11.5904 14.6645 11.5589 15.3544C11.5278 16.0451 11.52 16.265 11.52 18.0254C11.52 19.7858 11.5273 20.0057 11.5589 20.6969C11.5904 21.3868 11.7001 21.8581 11.8604 22.2702C12.0228 22.7022 12.2777 23.0941 12.6078 23.4181C12.9314 23.7476 13.3229 24.0026 13.7552 24.1654C14.1673 24.3253 14.6386 24.435 15.3285 24.4665C16.0197 24.4981 16.24 24.5054 18 24.5054C19.76 24.5054 19.9803 24.4981 20.6715 24.4665C21.3614 24.435 21.8327 24.3253 22.2448 24.165C22.6768 24.0026 23.0686 23.7477 23.3926 23.4176C23.7222 23.094 23.9772 22.7025 24.14 22.2702C24.2998 21.8581 24.4096 21.3868 24.4411 20.6969C24.4726 20.0057 24.48 19.7854 24.48 18.0254C24.48 16.2654 24.4726 16.0451 24.4411 15.3539C24.4096 14.664 24.2998 14.1927 24.1396 13.7806C23.9769 13.3482 23.7218 12.9565 23.3922 12.6328C23.0686 12.3032 22.677 12.0482 22.2448 11.8854C21.8327 11.726 21.361 11.6158 20.671 11.5843C19.9803 11.5532 19.7604 11.5454 18 11.5454ZM18 12.7131C19.7302 12.7131 19.9353 12.7196 20.6188 12.7507C21.2504 12.7796 21.5934 12.8846 21.8219 12.974C22.1243 13.0911 22.3403 13.2319 22.5671 13.4583C22.7939 13.6851 22.9343 13.9011 23.0514 14.2035C23.1404 14.432 23.2458 14.775 23.2747 15.4066C23.3058 16.0901 23.3123 16.2953 23.3123 18.0254C23.3123 19.7556 23.3058 19.9608 23.2747 20.6442C23.2458 21.2758 23.1408 21.6188 23.0514 21.8473C22.9477 22.1288 22.7822 22.3834 22.5671 22.5925C22.358 22.8076 22.1034 22.9731 21.8219 23.0768C21.5934 23.1658 21.2504 23.2712 20.6188 23.3001C19.9353 23.3312 19.7306 23.3377 18 23.3377C16.2694 23.3377 16.0646 23.3312 15.3812 23.3001C14.7496 23.2712 14.4066 23.1662 14.1781 23.0768C13.8966 22.9731 13.642 22.8076 13.4329 22.5925C13.2178 22.3834 13.0523 22.1288 12.9486 21.8473C12.8596 21.6188 12.7542 21.2758 12.7253 20.6442C12.6942 19.9608 12.6877 19.7556 12.6877 18.0254C12.6877 16.2953 12.6942 16.0901 12.7253 15.4066C12.7542 14.775 12.8592 14.432 12.9486 14.2035C13.0657 13.9011 13.2065 13.6851 13.4329 13.4583C13.6419 13.2432 13.8966 13.0777 14.1781 12.974C14.4066 12.885 14.7496 12.7796 15.3812 12.7507C16.0646 12.7196 16.2698 12.7131 18 12.7131Z" fill="white"/>
<path fill-rule="evenodd" clip-rule="evenodd" d="M18 20.1875C17.716 20.1875 17.4349 20.1316 17.1725 20.0229C16.9102 19.9142 16.6719 19.755 16.4711 19.5542C16.2703 19.3534 16.1111 19.1151 16.0024 18.8527C15.8937 18.5904 15.8378 18.3093 15.8378 18.0253C15.8378 17.7414 15.8937 17.4602 16.0024 17.1979C16.1111 16.9356 16.2703 16.6972 16.4711 16.4964C16.6719 16.2957 16.9102 16.1364 17.1725 16.0277C17.4349 15.9191 17.716 15.8632 18 15.8632C18.5734 15.8632 19.1234 16.091 19.5288 16.4964C19.9343 16.9019 20.1621 17.4519 20.1621 18.0253C20.1621 18.5988 19.9343 19.1487 19.5288 19.5542C19.1234 19.9597 18.5734 20.1875 18 20.1875ZM18 14.6946C17.1166 14.6946 16.2694 15.0455 15.6448 15.6701C15.0202 16.2948 14.6693 17.142 14.6693 18.0253C14.6693 18.9087 15.0202 19.7559 15.6448 20.3805C16.2694 21.0051 17.1166 21.356 18 21.356C18.8833 21.356 19.7305 21.0051 20.3551 20.3805C20.9798 19.7559 21.3307 18.9087 21.3307 18.0253C21.3307 17.142 20.9798 16.2948 20.3551 15.6701C19.7305 15.0455 18.8833 14.6946 18 14.6946ZM22.2997 14.6341C22.2997 14.8429 22.2167 15.0432 22.0691 15.1908C21.9214 15.3385 21.7212 15.4214 21.5123 15.4214C21.3035 15.4214 21.1033 15.3385 20.9556 15.1908C20.808 15.0432 20.725 14.8429 20.725 14.6341C20.725 14.4253 20.808 14.2251 20.9556 14.0774C21.1033 13.9298 21.3035 13.8468 21.5123 13.8468C21.7212 13.8468 21.9214 13.9298 22.0691 14.0774C22.2167 14.2251 22.2997 14.4253 22.2997 14.6341Z" fill="white"/>
</svg>
