<svg width="60" height="60" viewBox="0 0 60 60" fill="none" xmlns="http://www.w3.org/2000/svg">
<circle cx="30" cy="30" r="30" fill="#D2D8F2"/>
<path d="M26.7664 23.29C26.6727 23.3838 26.62 23.511 26.62 23.6436V42.1165C26.62 42.3187 26.7418 42.5011 26.9286 42.5784C27.1155 42.6558 27.3305 42.6131 27.4735 42.4701L33.2335 36.7101C33.3273 36.6163 33.38 36.4891 33.38 36.3565V17.8836C33.38 17.6813 33.2582 17.499 33.0713 17.4216C32.8845 17.3442 32.6694 17.387 32.5264 17.53L26.7664 23.29ZM23.8864 42.4701C24.0294 42.6131 24.2445 42.6558 24.4313 42.5784C24.6182 42.5011 24.74 42.3187 24.74 42.1165V23.6436C24.74 23.511 24.6873 23.3838 24.5935 23.29L21.2918 19.9883C20.7369 19.4334 19.9025 19.2674 19.1776 19.5677C18.4526 19.868 17.98 20.5754 17.98 21.36V35.76C17.98 36.2746 18.1844 36.768 18.5482 37.1318L23.8864 42.4701ZM36.1135 17.53C35.9705 17.387 35.7555 17.3442 35.5686 17.4216C35.3818 17.499 35.26 17.6813 35.26 17.8836V36.3565C35.26 36.4891 35.3127 36.6163 35.4064 36.7101L38.7082 40.0118C39.263 40.5667 40.0975 40.7326 40.8224 40.4324C41.5473 40.1321 42.02 39.4247 42.02 38.64V24.24C42.02 23.7255 41.8156 23.2321 41.4518 22.8683L36.1135 17.53Z" fill="#203ABD" stroke="#203ABD" stroke-linecap="round" stroke-linejoin="round"/>
</svg>
