<svg width="60" height="60" viewBox="0 0 60 60" fill="none" xmlns="http://www.w3.org/2000/svg">
<circle cx="30" cy="30" r="30" fill="#D2D8F2"/>
<path d="M33.82 24.24C33.82 26.3497 32.1097 28.06 30 28.06C27.8903 28.06 26.18 26.3497 26.18 24.24C26.18 22.1303 27.8903 20.42 30 20.42C32.1097 20.42 33.82 22.1303 33.82 24.24ZM41.02 27.12C41.02 28.4345 39.9544 29.5 38.64 29.5C37.3256 29.5 36.26 28.4345 36.26 27.12C36.26 25.8056 37.3256 24.74 38.64 24.74C39.9544 24.74 41.02 25.8056 41.02 27.12ZM30 31.94C32.905 31.94 35.26 34.295 35.26 37.2V41.02H24.74V37.2C24.74 34.295 27.095 31.94 30 31.94ZM23.74 27.12C23.74 28.4345 22.6744 29.5 21.36 29.5C20.0456 29.5 18.98 28.4345 18.98 27.12C18.98 25.8056 20.0456 24.74 21.36 24.74C22.6744 24.74 23.74 25.8056 23.74 27.12ZM39.14 41.02V37.2C39.14 35.8425 38.8437 34.5531 38.3121 33.3939C38.4201 33.3847 38.5295 33.38 38.64 33.38C40.7497 33.38 42.46 35.0903 42.46 37.2V41.02H39.14ZM17.54 41.02V37.2C17.54 35.0903 19.2503 33.38 21.36 33.38C21.4705 33.38 21.5799 33.3847 21.6879 33.3939C21.1563 34.5531 20.86 35.8425 20.86 37.2V41.02H17.54Z" fill="#203ABD" stroke="#203ABD"/>
</svg>
