<svg width="48" height="48" viewBox="0 0 48 48" fill="none" xmlns="http://www.w3.org/2000/svg">
<circle cx="24" cy="24" r="24" fill="#D2D8F2"/>
<path d="M32.7162 24.0002C32.7162 28.8139 28.8139 32.7162 24.0002 32.7162C19.1865 32.7162 15.2842 28.8139 15.2842 24.0002C15.2842 19.1865 19.1865 15.2842 24.0002 15.2842C28.8139 15.2842 32.7162 19.1865 32.7162 24.0002ZM22.8643 20.528C22.2192 19.8829 21.1732 19.8829 20.528 20.528C19.8829 21.1732 19.8829 22.2192 20.528 22.8643L21.6639 24.0002L20.528 25.136C19.8829 25.7812 19.8829 26.8272 20.528 27.4723C21.1732 28.1175 22.2192 28.1175 22.8643 27.4723L24.0002 26.3365L25.136 27.4723C25.7812 28.1175 26.8272 28.1175 27.4723 27.4723C28.1175 26.8272 28.1175 25.7812 27.4723 25.136L26.3365 24.0002L27.4723 22.8643C28.1175 22.2192 28.1175 21.1732 27.4723 20.528C26.8272 19.8829 25.7812 19.8829 25.136 20.528L24.0002 21.6639L22.8643 20.528Z" fill="#203ABD" stroke="#203ABD"/>
</svg>
