<svg width="61" height="60" viewBox="0 0 61 60" fill="none" xmlns="http://www.w3.org/2000/svg">
<circle cx="30.5" cy="30" r="30" fill="white"/>
<path d="M29.06 28.56C29.06 26.9694 30.3494 25.68 31.94 25.68C33.5306 25.68 34.82 26.9694 34.82 28.56C34.82 30.1506 33.5306 31.44 31.94 31.44C31.1443 31.44 30.4263 31.1192 29.9035 30.5965C29.3808 30.0737 29.06 29.3557 29.06 28.56Z" fill="#203ABD"/>
<path fill-rule="evenodd" clip-rule="evenodd" d="M30.5 41.52C36.8623 41.52 42.02 36.3623 42.02 30C42.02 23.6377 36.8623 18.48 30.5 18.48C24.1377 18.48 18.98 23.6377 18.98 30C18.98 36.3623 24.1377 41.52 30.5 41.52ZM31.94 22.8C28.7589 22.8 26.18 25.3789 26.18 28.56C26.18 29.6276 26.4713 30.6284 26.9777 31.4858L23.7218 34.7418C23.1594 35.3041 23.1594 36.2159 23.7218 36.7782C24.2841 37.3406 25.1959 37.3406 25.7582 36.7782L29.0142 33.5223C29.8716 34.0287 30.8724 34.32 31.94 34.32C35.1212 34.32 37.7 31.7412 37.7 28.56C37.7 25.3789 35.1212 22.8 31.94 22.8Z" fill="#203ABD"/>
<path d="M29.06 28.56C29.06 26.9694 30.3494 25.68 31.94 25.68C33.5306 25.68 34.82 26.9694 34.82 28.56C34.82 30.1506 33.5306 31.44 31.94 31.44C31.1443 31.44 30.4263 31.1192 29.9035 30.5965C29.3808 30.0737 29.06 29.3557 29.06 28.56Z" stroke="#203ABD" stroke-width="2"/>
<path fill-rule="evenodd" clip-rule="evenodd" d="M30.5 41.52C36.8623 41.52 42.02 36.3623 42.02 30C42.02 23.6377 36.8623 18.48 30.5 18.48C24.1377 18.48 18.98 23.6377 18.98 30C18.98 36.3623 24.1377 41.52 30.5 41.52ZM31.94 22.8C28.7589 22.8 26.18 25.3789 26.18 28.56C26.18 29.6276 26.4713 30.6284 26.9777 31.4858L23.7218 34.7418C23.1594 35.3041 23.1594 36.2159 23.7218 36.7782C24.2841 37.3406 25.1959 37.3406 25.7582 36.7782L29.0142 33.5223C29.8716 34.0287 30.8724 34.32 31.94 34.32C35.1212 34.32 37.7 31.7412 37.7 28.56C37.7 25.3789 35.1212 22.8 31.94 22.8Z" stroke="#203ABD" stroke-width="2"/>
</svg>
