<svg width="36" height="37" viewBox="0 0 36 37" fill="none" xmlns="http://www.w3.org/2000/svg">
<circle cx="18" cy="18.0254" r="18" fill="#FA8026"/>
<path d="M23.7258 15.0878C23.7345 15.2148 23.7345 15.3417 23.7345 15.4699C23.7345 19.3736 20.7627 23.8758 15.3285 23.8758V23.8735C13.7233 23.8758 12.1514 23.416 10.8 22.549C11.0334 22.5771 11.268 22.5912 11.5032 22.5918C12.8335 22.5929 14.1258 22.1466 15.1723 21.3246C13.9081 21.3006 12.7995 20.4764 12.4123 19.273C12.8551 19.3584 13.3114 19.3409 13.7461 19.2221C12.3678 18.9436 11.3762 17.7327 11.3762 16.3263C11.3762 16.3134 11.3762 16.3011 11.3762 16.2889C11.7869 16.5176 12.2467 16.6446 12.7171 16.6586C11.4189 15.791 11.0188 14.0641 11.8027 12.7139C13.3027 14.5596 15.5157 15.6816 17.8915 15.8004C17.6534 14.7743 17.9786 13.699 18.7462 12.9777C19.9361 11.8592 21.8075 11.9165 22.9261 13.1058C23.5877 12.9754 24.2219 12.7326 24.8022 12.3886C24.5816 13.0725 24.1201 13.6534 23.5035 14.0225C24.0891 13.9535 24.6612 13.7967 25.2 13.5575C24.8034 14.1518 24.3038 14.6696 23.7258 15.0878Z" fill="white"/>
</svg>
